<mxfile host="app.diagrams.net" modified="2021-06-28T08:42:52.068Z" agent="5.0 (Windows NT 10.0; Win64; x64) AppleWebKit/537.36 (KHTML, like Gecko) Chrome/89.0.4389.114 Safari/537.36" etag="4a--f1OoY7JQ6X4C7LzB" version="14.7.6" type="github">
  <diagram id="lrdPNAFXEsloo66L1c4m" name="Page-1">
    <mxGraphModel dx="1422" dy="762" grid="1" gridSize="10" guides="1" tooltips="1" connect="1" arrows="1" fold="1" page="1" pageScale="1" pageWidth="827" pageHeight="1169" math="0" shadow="0">
      <root>
        <mxCell id="0" />
        <mxCell id="1" parent="0" />
        <mxCell id="gS8GdUqgw5i7fUlM9zbi-13" value="" style="edgeStyle=orthogonalEdgeStyle;rounded=0;orthogonalLoop=1;jettySize=auto;html=1;" edge="1" parent="1" source="gS8GdUqgw5i7fUlM9zbi-1" target="gS8GdUqgw5i7fUlM9zbi-2">
          <mxGeometry relative="1" as="geometry" />
        </mxCell>
        <mxCell id="gS8GdUqgw5i7fUlM9zbi-1" value="start" style="ellipse;whiteSpace=wrap;html=1;" vertex="1" parent="1">
          <mxGeometry x="320" y="40" width="120" height="80" as="geometry" />
        </mxCell>
        <mxCell id="gS8GdUqgw5i7fUlM9zbi-14" value="" style="edgeStyle=orthogonalEdgeStyle;rounded=0;orthogonalLoop=1;jettySize=auto;html=1;" edge="1" parent="1" source="gS8GdUqgw5i7fUlM9zbi-2" target="gS8GdUqgw5i7fUlM9zbi-3">
          <mxGeometry relative="1" as="geometry" />
        </mxCell>
        <mxCell id="gS8GdUqgw5i7fUlM9zbi-2" value="查询优惠券启用列表" style="rounded=0;whiteSpace=wrap;html=1;" vertex="1" parent="1">
          <mxGeometry x="320" y="160" width="120" height="60" as="geometry" />
        </mxCell>
        <mxCell id="gS8GdUqgw5i7fUlM9zbi-15" value="" style="edgeStyle=orthogonalEdgeStyle;rounded=0;orthogonalLoop=1;jettySize=auto;html=1;" edge="1" parent="1" source="gS8GdUqgw5i7fUlM9zbi-3" target="gS8GdUqgw5i7fUlM9zbi-4">
          <mxGeometry relative="1" as="geometry" />
        </mxCell>
        <mxCell id="gS8GdUqgw5i7fUlM9zbi-3" value="循环遍历优惠券" style="rounded=0;whiteSpace=wrap;html=1;" vertex="1" parent="1">
          <mxGeometry x="320" y="280" width="120" height="60" as="geometry" />
        </mxCell>
        <mxCell id="gS8GdUqgw5i7fUlM9zbi-16" value="" style="edgeStyle=orthogonalEdgeStyle;rounded=0;orthogonalLoop=1;jettySize=auto;html=1;" edge="1" parent="1" source="gS8GdUqgw5i7fUlM9zbi-4" target="gS8GdUqgw5i7fUlM9zbi-5">
          <mxGeometry relative="1" as="geometry" />
        </mxCell>
        <mxCell id="gS8GdUqgw5i7fUlM9zbi-4" value="得到优惠券ids" style="rounded=0;whiteSpace=wrap;html=1;" vertex="1" parent="1">
          <mxGeometry x="320" y="400" width="120" height="60" as="geometry" />
        </mxCell>
        <mxCell id="gS8GdUqgw5i7fUlM9zbi-17" value="" style="edgeStyle=orthogonalEdgeStyle;rounded=0;orthogonalLoop=1;jettySize=auto;html=1;" edge="1" parent="1" source="gS8GdUqgw5i7fUlM9zbi-5" target="gS8GdUqgw5i7fUlM9zbi-6">
          <mxGeometry relative="1" as="geometry" />
        </mxCell>
        <mxCell id="gS8GdUqgw5i7fUlM9zbi-5" value="查询中台优惠券接口" style="rounded=0;whiteSpace=wrap;html=1;" vertex="1" parent="1">
          <mxGeometry x="320" y="520" width="120" height="60" as="geometry" />
        </mxCell>
        <mxCell id="gS8GdUqgw5i7fUlM9zbi-19" value="" style="edgeStyle=orthogonalEdgeStyle;rounded=0;orthogonalLoop=1;jettySize=auto;html=1;" edge="1" parent="1" source="gS8GdUqgw5i7fUlM9zbi-6" target="gS8GdUqgw5i7fUlM9zbi-8">
          <mxGeometry relative="1" as="geometry" />
        </mxCell>
        <mxCell id="gS8GdUqgw5i7fUlM9zbi-21" value="" style="edgeStyle=orthogonalEdgeStyle;rounded=0;orthogonalLoop=1;jettySize=auto;html=1;" edge="1" parent="1" source="gS8GdUqgw5i7fUlM9zbi-6" target="gS8GdUqgw5i7fUlM9zbi-7">
          <mxGeometry relative="1" as="geometry" />
        </mxCell>
        <mxCell id="gS8GdUqgw5i7fUlM9zbi-6" value="判断每个total库存数量=0" style="rhombus;whiteSpace=wrap;html=1;" vertex="1" parent="1">
          <mxGeometry x="317" y="640" width="126" height="80" as="geometry" />
        </mxCell>
        <mxCell id="gS8GdUqgw5i7fUlM9zbi-10" style="edgeStyle=orthogonalEdgeStyle;rounded=0;orthogonalLoop=1;jettySize=auto;html=1;entryX=0;entryY=0.5;entryDx=0;entryDy=0;" edge="1" parent="1" source="gS8GdUqgw5i7fUlM9zbi-7" target="gS8GdUqgw5i7fUlM9zbi-3">
          <mxGeometry relative="1" as="geometry">
            <Array as="points">
              <mxPoint x="160" y="830" />
              <mxPoint x="160" y="310" />
            </Array>
          </mxGeometry>
        </mxCell>
        <mxCell id="gS8GdUqgw5i7fUlM9zbi-22" value="" style="edgeStyle=orthogonalEdgeStyle;rounded=0;orthogonalLoop=1;jettySize=auto;html=1;" edge="1" parent="1" source="gS8GdUqgw5i7fUlM9zbi-7" target="gS8GdUqgw5i7fUlM9zbi-11">
          <mxGeometry relative="1" as="geometry" />
        </mxCell>
        <mxCell id="gS8GdUqgw5i7fUlM9zbi-7" value="修改该条优惠券转台为禁用" style="rounded=0;whiteSpace=wrap;html=1;" vertex="1" parent="1">
          <mxGeometry x="320" y="800" width="120" height="60" as="geometry" />
        </mxCell>
        <mxCell id="gS8GdUqgw5i7fUlM9zbi-8" value="return" style="rounded=0;whiteSpace=wrap;html=1;" vertex="1" parent="1">
          <mxGeometry x="560" y="650" width="120" height="60" as="geometry" />
        </mxCell>
        <mxCell id="gS8GdUqgw5i7fUlM9zbi-23" value="" style="edgeStyle=orthogonalEdgeStyle;rounded=0;orthogonalLoop=1;jettySize=auto;html=1;" edge="1" parent="1" source="gS8GdUqgw5i7fUlM9zbi-11" target="gS8GdUqgw5i7fUlM9zbi-12">
          <mxGeometry relative="1" as="geometry" />
        </mxCell>
        <mxCell id="gS8GdUqgw5i7fUlM9zbi-11" value="列表数据处理完" style="rounded=0;whiteSpace=wrap;html=1;" vertex="1" parent="1">
          <mxGeometry x="320" y="920" width="120" height="60" as="geometry" />
        </mxCell>
        <mxCell id="gS8GdUqgw5i7fUlM9zbi-12" value="return" style="rounded=0;whiteSpace=wrap;html=1;" vertex="1" parent="1">
          <mxGeometry x="320" y="1040" width="120" height="60" as="geometry" />
        </mxCell>
        <mxCell id="gS8GdUqgw5i7fUlM9zbi-24" value="NO" style="text;html=1;align=center;verticalAlign=middle;resizable=0;points=[];autosize=1;strokeColor=none;" vertex="1" parent="1">
          <mxGeometry x="485" y="660" width="30" height="20" as="geometry" />
        </mxCell>
        <mxCell id="gS8GdUqgw5i7fUlM9zbi-25" value="YES" style="text;html=1;align=center;verticalAlign=middle;resizable=0;points=[];autosize=1;strokeColor=none;" vertex="1" parent="1">
          <mxGeometry x="350" y="740" width="40" height="20" as="geometry" />
        </mxCell>
      </root>
    </mxGraphModel>
  </diagram>
</mxfile>
